<svg width="32" height="32" viewBox="0 0 32 32" fill="none" xmlns="http://www.w3.org/2000/svg">
<path d="M21.8002 3.45C18.4002 3.45 15.3002 2.5 13.1002 1C12.7002 2.8 12.4502 4.8 12.4502 6.9C12.4502 15.7 21.7502 22.85 21.7502 22.85C21.7502 22.85 31.0002 15.7 31.0002 6.9C31.0002 4.85 30.8002 2.9 30.3502 1.1C28.1502 2.55 25.1502 3.45 21.8002 3.45Z" fill="#42ADE2"/>
<path d="M25.8 16.3C25.8 15.4 23.95 12.75 21.7 12.75C19.45 12.75 17.6 15.45 17.6 16.3C17.6 17.2 19.45 15.9 21.7 15.9C24 15.9 25.8 17.15 25.8 16.3ZM20.6 7.44999C20 7.19999 18.8 6.64999 18 6.64999C17.3 6.64999 16 7.14999 15.35 7.44999C14.8 7.69999 14.7 7.89999 14.85 8.24999C14.95 8.59999 15.35 8.79999 15.75 8.69999C15.75 8.69999 17.35 7.94999 17.95 7.94999C18.55 7.94999 20.2 8.69999 20.2 8.69999C20.6 8.79999 21 8.59999 21.1 8.24999C21.25 7.94999 21.15 7.69999 20.6 7.44999ZM28.35 7.44999C27.75 7.19999 26.55 6.64999 25.75 6.64999C25.05 6.64999 23.75 7.14999 23.1 7.44999C22.55 7.69999 22.45 7.89999 22.6 8.24999C22.7 8.59999 23.1 8.79999 23.5 8.69999C23.5 8.69999 25.1 7.94999 25.7 7.94999C26.3 7.94999 27.95 8.69999 27.95 8.69999C28.35 8.79999 28.75 8.59999 28.85 8.24999C29 7.94999 28.9 7.69999 28.35 7.44999Z" fill="#3E4347"/>
<path d="M9.75 13.35C6.65 14.5 3.5 14.65 1 14C1.2 15.8 1.65 17.7 2.35 19.55C5.25 27.6 16.05 31 16.05 31C16.05 31 22.1 21.45 19.2 13.45C18.55 11.6 17.7 9.89999 16.7 8.39999C15.2 10.45 12.75 12.25 9.75 13.35Z" fill="#FF717F"/>
<path d="M16.7998 21.4C17.0998 22.2 16.2998 25.25 14.2498 26C12.1998 26.75 9.64978 24.9 9.34978 24.1C9.04978 23.3 11.1498 23.85 13.1998 23.1C15.2498 22.35 16.4998 20.6 16.7998 21.4ZM9.64978 17.5C8.99978 17.45 7.74978 17.35 7.04978 17.6C6.39978 17.85 5.39978 18.75 4.94978 19.2C4.49978 19.6 4.49978 19.85 4.69978 20.1C4.89978 20.4 5.34978 20.45 5.69978 20.2C5.69978 20.2 6.89978 19 7.44978 18.8C7.99978 18.6 9.74978 18.75 9.74978 18.75C10.1498 18.7 10.4498 18.4 10.4498 18.05C10.3998 17.7 10.2498 17.5 9.64978 17.5ZM16.6998 14.9C16.0498 14.85 14.7998 14.75 14.0998 15C13.4498 15.25 12.4498 16.15 11.9998 16.6C11.5998 17 11.5998 17.25 11.7998 17.5C11.9998 17.8 12.4498 17.85 12.7998 17.6C12.7998 17.6 13.9998 16.4 14.5498 16.2C15.0998 16 16.8498 16.15 16.8498 16.15C17.2498 16.1 17.5498 15.8 17.5498 15.45C17.4498 15.15 17.2998 14.95 16.6998 14.9Z" fill="#3E4347"/>
<path d="M12.5 6.9C12.4 7.8 12.2 8.65 11.85 9.5C11.7 9.9 11.45 10.3 11.2 10.7C10.9 11.1 10.55 11.45 10.05 11.65C9.55 11.85 8.95 11.8 8.55 11.6C8.1 11.4 7.75 11.15 7.4 10.85C6.7 10.3 6 9.7 5.5 8.95C5.25 8.55 5.05 8.1 4.95 7.65C4.85 7.15 4.85 6.7 4.95 6.2C5.1 5.25 5.6 4.35 6.2 3.65C6.85 2.95 7.65 2.4 8.5 2.1C9.35 1.75 10.35 1.65 11.2 2V2.1C10.35 2.1 9.55 2.4 8.85 2.8C8.15 3.2 7.55 3.75 7 4.35C6.5 4.95 6.05 5.65 5.9 6.4C5.7 7.15 5.8 7.95 6.1 8.7C6.4 9.45 6.95 10.15 7.65 10.65C8 10.9 8.4 11.1 8.75 11.15C9.15 11.2 9.5 11.15 9.75 10.95C10.3 10.55 10.8 9.85 11.2 9.15C11.65 8.4 12 7.65 12.45 6.9H12.5Z" fill="#DBB046"/>
<path d="M12.4001 6.95C11.5001 6.35 10.4501 6.1 9.5501 6.25C9.1001 6.3 8.7001 6.5 8.5001 6.8C8.3001 7.1 8.2501 7.55 8.3501 8C8.4001 8.25 8.4501 8.45 8.5501 8.7C8.6501 8.95 8.7501 9.25 8.8001 9.5C8.9001 10.05 8.9001 10.65 8.8001 11.2C8.5501 12.3 7.7501 13.3 6.6001 13.65C6.0501 13.85 5.4001 13.85 4.8001 13.6C4.2001 13.35 3.7501 12.9 3.4001 12.4C3.0501 11.9 2.8001 11.35 2.7001 10.75C2.5501 10.15 2.6001 9.55 2.6501 9C2.8001 7.85 3.2001 6.85 3.4501 5.85C3.6001 5.35 3.7001 4.85 3.5501 4.4C3.4501 4 3.0501 3.6 2.6001 3.35L2.6501 3.25C2.9001 3.3 3.2001 3.4 3.4501 3.55C3.7001 3.7 3.9501 3.95 4.0501 4.2C4.3501 4.8 4.3001 5.4 4.2501 5.95C4.1001 7.05 3.8001 8.1 3.7001 9.1C3.6001 10.1 3.7001 11.05 4.2001 11.9C4.6501 12.7 5.5001 13.25 6.5001 13.1C6.9501 13 7.4501 12.8 7.8001 12.45C8.1501 12.1 8.4001 11.6 8.5001 11.1C8.6001 10.6 8.5001 10.1 8.3001 9.6C8.2001 9.35 8.1001 9.15 7.9501 8.9C7.8001 8.65 7.7001 8.4 7.6001 8.1C7.5001 7.8 7.4501 7.5 7.5001 7.15C7.5001 6.8 7.6501 6.45 7.8501 6.2C8.3001 5.6 9.0001 5.4 9.5501 5.35C10.7501 5.3 11.9001 5.85 12.5501 6.75L12.4001 6.95Z" fill="#FFCE31"/>
<path d="M12.4502 8.14999C13.1406 8.14999 13.7002 7.59035 13.7002 6.89999C13.7002 6.20964 13.1406 5.64999 12.4502 5.64999C11.7598 5.64999 11.2002 6.20964 11.2002 6.89999C11.2002 7.59035 11.7598 8.14999 12.4502 8.14999Z" fill="#FFD86C"/>
<path d="M21.05 19.3C20.5 20.05 20.1 20.85 19.75 21.75C19.6 22.2 19.5 22.7 19.45 23.2C19.4 23.7 19.45 24.25 19.75 24.8C20 25.35 20.55 25.75 21.05 25.95C21.55 26.15 22.05 26.2 22.55 26.3C23.5 26.4 24.5 26.5 25.5 26.3C26 26.2 26.45 26 26.9 25.75C27.3 25.45 27.7 25.1 27.95 24.65C28.5 23.8 28.75 22.75 28.7 21.75C28.65 20.75 28.4 19.7 27.9 18.8C27.65 18.35 27.35 17.9 27 17.5L26.65 17.95C26.85 18.3 27 18.7 27.15 19.1C27.45 19.95 27.6 20.85 27.6 21.7C27.6 22.55 27.45 23.4 27.1 24.1C26.75 24.8 26.1 25.35 25.35 25.7C24.55 26.05 23.6 26.15 22.7 25.95C22.25 25.9 21.8 25.7 21.4 25.45C21 25.2 20.8 24.85 20.7 24.5C20.5 23.8 20.6 22.9 20.75 22C20.9 21.1 21.15 20.25 21.3 19.3H21.05Z" fill="#DBB046"/>
<path d="M20.4498 18.95C21.5498 19.35 22.5498 20.1 23.0998 21C23.3998 21.45 23.4998 21.95 23.3998 22.3C23.2998 22.65 22.9998 23 22.5498 23.2C22.3498 23.3 22.0998 23.4 21.8498 23.5C21.5998 23.6 21.2998 23.7 20.9998 23.8C20.4998 24.1 19.9998 24.5 19.6998 25C18.9998 25.95 18.7998 27.3 19.3498 28.55C19.5998 29.15 20.0998 29.75 20.6998 30.1C21.2998 30.45 21.9998 30.6 22.6498 30.55C23.2998 30.5 23.8998 30.35 24.4998 30.05C25.0498 29.75 25.5498 29.35 25.9498 28.95C26.7498 28.05 27.2998 27.05 27.8998 26.15C28.1998 25.7 28.5498 25.3 28.9498 25.1C29.3998 24.9 29.9498 25 30.4998 25.25L30.5498 25.15C30.2998 24.95 30.0498 24.75 29.7498 24.65C29.4498 24.55 29.0998 24.5 28.7498 24.55C28.0998 24.7 27.5998 25.15 27.1998 25.55C26.3998 26.4 25.7998 27.35 25.0498 28.1C24.3498 28.85 23.4998 29.4 22.4498 29.5C21.4498 29.65 20.3998 29.25 19.8498 28.3C19.5498 27.85 19.3998 27.25 19.4498 26.7C19.4498 26.15 19.6498 25.6 19.9998 25.2C20.3498 24.8 20.7998 24.55 21.3498 24.4C21.5998 24.35 21.8498 24.3 22.1498 24.25C22.4498 24.2 22.7498 24.15 23.0498 24.05C23.3498 23.95 23.6498 23.8 23.8998 23.55C24.1498 23.3 24.3498 23 24.4498 22.6C24.5998 21.85 24.2998 21.1 23.8498 20.55C22.9998 19.45 21.6998 18.85 20.5498 18.85L20.4498 18.95Z" fill="#FFCE31"/>
<path d="M21.3345 19.9808C21.8658 19.5399 21.8961 18.7002 21.4023 18.1052C20.9086 17.5102 20.0776 17.3853 19.5464 17.8261C19.0151 18.267 18.9848 19.1067 19.4785 19.7017C19.9723 20.2967 20.8033 20.4217 21.3345 19.9808Z" fill="#FFD86C"/>
</svg>
