<svg width="32" height="32" viewBox="0 0 32 32" fill="none" xmlns="http://www.w3.org/2000/svg">
<path d="M17.1074 1.345C17.3299 0.857502 17.7449 0.720002 18.0899 0.705002C18.6149 0.680002 19.1649 1.0425 19.6824 1.47C20.0499 1.885 20.4899 2.205 20.9999 2.43C21.3524 2.555 21.7024 2.58 22.0574 2.5625C22.5574 2.5375 23.0649 2.4275 23.5674 2.4025L23.5949 2.4L23.8224 2.38C24.3974 2.3525 24.9399 2.4875 25.4549 2.785C25.9274 3.215 26.1349 3.75 26.0699 4.395C25.9599 4.9275 26.0549 5.415 26.3524 5.8575C26.8649 6.2175 27.4024 6.5325 27.9674 6.8C28.5524 7.12 28.9199 7.6025 29.0799 8.245C29.1374 8.925 28.8224 9.36 28.1424 9.5475C27.2574 9.77 26.0674 9.77 25.0649 10.545C23.5999 11.7675 23.1399 13 22.5024 13.1875C22.1899 12.8325 20.2399 11.325 16.9699 10.6025C16.3849 8.585 16.0299 3.715 17.1074 1.345Z" fill="#FCC21B"/>
<path d="M20.4077 10.1725C20.9827 9.0225 22.6202 7 23.0127 7.4C23.4002 7.835 22.5077 10.095 21.8802 11.2025C21.6577 10.9675 20.9402 10.475 20.6277 10.3925" fill="#D19B15"/>
<path d="M23.2999 13.855C22.9624 13.855 22.6324 13.6825 22.4449 13.3725C20.7249 10.5425 16.8299 10.84 16.7924 10.845C16.2424 10.89 15.7574 10.485 15.7099 9.93749C15.6867 9.67414 15.7685 9.41228 15.9376 9.20902C16.1067 9.00576 16.3492 8.87761 16.6124 8.85249C16.8224 8.83249 21.7799 8.42499 24.1549 12.3375C24.4424 12.81 24.2899 13.425 23.8199 13.71C23.6549 13.8075 23.4774 13.855 23.2999 13.855Z" fill="#8D6E63"/>
<path d="M24.0151 30.5175C19.7326 31.5725 13.7801 31.4975 9.52764 30.6575C5.54764 29.87 2.50014 27.5225 2.85014 22.9025C3.20514 18.2275 6.30264 13.825 10.5626 11.885C14.6851 10.0075 20.2176 9.09249 23.1326 13.3525C23.8576 14.4125 25.2426 16.765 25.3076 17.92C25.3126 18.0125 25.3176 18.095 25.3376 18.175C25.3426 18.465 25.4601 18.7575 25.7451 18.9725C27.5776 20.36 28.9126 22.2 29.1576 24.7225C29.4476 27.73 26.6026 29.88 24.0151 30.5175Z" fill="#FCC21B"/>
<path d="M20.2177 22.7825C19.6977 21.9375 18.7402 21.02 17.8352 20.2325L18.5377 18.2875C19.1627 18.775 19.7127 19.2325 20.1427 19.6275C20.2127 19.695 20.3227 19.7 20.4027 19.6425L22.0127 18.445C22.0577 18.41 22.0852 18.36 22.0927 18.3025C22.0954 18.2744 22.0921 18.2461 22.083 18.2194C22.074 18.1927 22.0594 18.1682 22.0402 18.1475C21.5627 17.615 20.5277 16.6825 19.3952 15.915L19.8077 14.775C19.8552 14.645 19.7902 14.5025 19.6577 14.4525L17.7652 13.7675C17.6352 13.72 17.4902 13.7875 17.4427 13.9175L17.1352 14.77C15.3527 14.2175 13.9377 14.395 12.8277 15.3225C11.9577 16.0525 11.5827 17.095 11.8477 18.04C12.1177 19.0475 12.9077 19.7375 13.9077 20.61L14.0352 20.7225C14.2677 20.9225 14.5152 21.13 14.7577 21.3375L13.9027 23.7025C12.7802 22.9675 11.8402 21.95 11.6802 21.7275C11.6502 21.6862 11.6056 21.6578 11.5555 21.648C11.5054 21.6383 11.4535 21.6479 11.4102 21.675L9.55518 22.86C9.51018 22.8875 9.47768 22.935 9.46518 22.99C9.45518 23.0425 9.46518 23.0975 9.49518 23.1425C10.0527 23.9825 10.9652 24.9225 11.9377 25.6575C12.1702 25.8325 12.5202 26.0775 12.9502 26.335L12.6277 27.2225C12.5827 27.3525 12.6477 27.495 12.7777 27.5425L14.6727 28.23C14.8027 28.2775 14.9477 28.21 14.9952 28.08L15.2627 27.34C16.9927 27.81 18.5127 27.5375 19.6877 26.5325C20.8227 25.56 21.0177 24.195 20.2177 22.7825ZM16.2952 17.1L15.7777 18.5325C15.2952 18.1575 15.0377 17.875 15.2202 17.47C15.4102 17.055 15.8827 17.0275 16.2952 17.1ZM16.8077 23.075C17.1402 23.3975 17.3752 23.695 17.3977 23.9675C17.4077 24.1225 17.3502 24.2725 17.2152 24.4275C16.9802 24.7 16.6052 24.7525 16.2177 24.705L16.8077 23.075Z" fill="#424242"/>
</svg>
