<svg width="32" height="32" viewBox="0 0 32 32" fill="none" xmlns="http://www.w3.org/2000/svg">
<g clip-path="url(#clip0_326_361)">
<path d="M31.8501 8.05001C31.8501 8.05001 28.8001 2.05001 28.0001 1.60001C27.2001 1.15001 22.7501 1.25001 21.1001 0.600006C21.1001 0.600006 19.0501 3.00001 16.0001 3.00001C12.9501 3.00001 10.9001 0.600006 10.9001 0.600006C9.2001 1.25001 4.8001 1.15001 4.0001 1.60001C3.2001 2.05001 0.100098 8.05001 0.100098 8.05001C1.8001 11.9 5.8001 12.75 5.8001 12.75L7.4001 10.25L6.6501 29.6C10.5001 31.85 13.3001 32 16.0001 32C18.7001 32 21.4501 31.85 25.3001 29.65L24.5501 10.3L26.1501 12.8C26.1501 12.75 30.2001 11.95 31.8501 8.05001Z" fill="#42ADE2"/>
<path d="M16.1 3.6C15.3 3.6 14.55 3.45 13.75 3.15C13.15 2.9 12.5 2.6 11.9 2.2C10.9 1.55 10.25 0.85 10.25 0.85L11.2 0.1C11.2 0.1 11.75 0.7 12.65 1.3C13.45 1.8 14.7 2.45 16.1 2.45C17.7 2.45 19.25 1.6 20.7 0L21.65 0.75C20.75 1.75 19.85 2.5 18.85 2.95C18 3.35 17.1 3.6 16.1 3.6ZM6.5 11.7C4.75 11.55 3.25 10.7 2.05 9.15C1.35 8.25 0.9 7.35 0.7 6.85L0 8.25C0.25 8.75 0.6 9.3 1.05 9.85C1.75 10.75 2.55 11.45 3.4 11.95C4.15 12.4 4.95 12.7 5.85 12.8L6.5 11.7ZM25.5 11.75C27.25 11.6 28.75 10.75 29.95 9.2C30.65 8.3 31.1 7.4 31.3 6.9L32 8.25C31.75 8.75 31.4 9.3 30.95 9.85C30.25 10.75 29.45 11.45 28.6 11.95C27.85 12.4 27 12.7 26.15 12.8L25.5 11.75Z" fill="#22648C"/>
</g>
<defs>
<clipPath id="clip0_326_361">
<rect width="32" height="32" fill="white"/>
</clipPath>
</defs>
</svg>
