<svg width="32" height="32" viewBox="0 0 32 32" fill="none" xmlns="http://www.w3.org/2000/svg">
<g clip-path="url(#clip0_326_295)">
<path d="M19.8406 8.22099C19.8793 8.36415 19.9459 8.49826 20.0365 8.61566C20.1272 8.73306 20.24 8.83144 20.3687 8.90518C20.4974 8.97892 20.6393 9.02658 20.7865 9.04542C20.9336 9.06426 21.0829 9.05392 21.2261 9.01499L25.0201 7.98649C25.1631 7.94789 25.2971 7.88147 25.4145 7.79103C25.5319 7.70059 25.6303 7.58791 25.7041 7.45942C25.7778 7.33093 25.8256 7.18915 25.8445 7.0422C25.8635 6.89525 25.8533 6.746 25.8146 6.60299L25.126 4.05699C25.0476 3.7678 24.8576 3.52159 24.5977 3.37251C24.3378 3.22342 24.0293 3.18367 23.74 3.26199L19.946 4.29049C19.6571 4.36902 19.4111 4.55905 19.2621 4.81883C19.1131 5.07862 19.0734 5.38691 19.1516 5.67599L19.8406 8.22099ZM12.2061 8.29049C12.1272 8.57898 11.9372 8.82445 11.6777 8.97309C11.4181 9.12173 11.1103 9.16143 10.8215 9.08349L7.02805 8.05499C6.88491 8.0165 6.75076 7.95016 6.63328 7.85976C6.51581 7.76937 6.41731 7.6567 6.34342 7.5282C6.26953 7.3997 6.22171 7.25789 6.20268 7.11088C6.18366 6.96388 6.19381 6.81457 6.23255 6.67149L6.92155 4.12599C7.00018 3.83698 7.19033 3.59101 7.45021 3.44213C7.7101 3.29325 8.01847 3.25363 8.30755 3.33199L12.1006 4.36049C12.3895 4.43881 12.6356 4.6286 12.7847 4.88818C12.9339 5.14776 12.9739 5.45592 12.896 5.74499L12.2061 8.29049Z" fill="#405866"/>
<path d="M15.2209 5.337C15.4964 6.083 15.8354 7.072 16.0209 8.105C16.2179 9.219 15.8024 9.832 15.0209 10.517C14.7919 10.7155 14.7139 11.009 14.8149 11.2845C14.9214 11.566 15.1969 11.763 15.4859 11.763C15.6524 11.763 15.8119 11.701 15.9474 11.582C16.6139 11.0015 17.1119 10.4595 17.3749 9.6975C17.6879 8.797 17.4324 7.746 17.2434 6.9785C17.0324 6.1225 16.7254 5.285 16.4264 4.4735L16.3434 4.251C15.8984 3.042 15.7924 2.1315 16.5539 1.051C16.7084 0.828501 16.7309 0.570001 16.6134 0.340501C16.3844 -0.0999986 15.6879 -0.176999 15.3869 0.251001C14.9519 0.867001 14.5099 1.6415 14.5274 2.7045C14.5434 3.531 14.8349 4.3045 15.1169 5.0535L15.2234 5.336" fill="#354A54"/>
<path d="M15.3715 11.3105C15.269 11.0365 15.348 10.7425 15.576 10.5435C16.359 9.8595 16.775 9.2455 16.576 8.1325C16.3925 7.0995 16.0525 6.1125 15.7775 5.3645L15.671 5.081C15.391 4.3325 15.098 3.559 15.083 2.7325C15.064 1.6675 15.506 0.894497 15.942 0.278997C16.011 0.178497 16.103 0.107997 16.2035 0.0604969C15.9045 -0.070503 15.5185 -0.013003 15.314 0.278997C14.8785 0.893997 14.4385 1.6675 14.4545 2.7325C14.4715 3.559 14.7605 4.3325 15.044 5.081L15.1485 5.3645C15.426 6.1105 15.7655 7.0995 15.9495 8.1325C16.1465 9.2455 15.731 9.8595 14.9495 10.5435C14.7195 10.7425 14.6415 11.0365 14.745 11.3105C14.849 11.593 15.1245 11.7905 15.413 11.7905C15.521 11.7905 15.6265 11.76 15.726 11.7085C15.5623 11.6246 15.4363 11.4827 15.3715 11.3105Z" fill="#405866"/>
<path d="M2.98814 8.2405C7.18014 1.3505 13.4981 6.1435 13.4981 6.1435C13.9076 6.4525 14.6631 6.7075 15.1746 6.7095L16.8686 6.7105C17.3821 6.7105 18.1381 6.4565 18.5466 6.1455C18.5466 6.1455 24.8641 1.3535 29.0566 8.2415C33.2521 15.129 31.5616 22.6295 31.5616 22.6295C31.2641 24.4665 30.2891 25.692 28.4476 25.5365C26.6116 25.383 22.6271 20.5925 22.6271 20.5925C22.2991 20.197 21.6096 19.874 21.0951 19.874L10.9521 19.8715C10.4406 19.8715 9.75164 20.1945 9.42264 20.588C9.42264 20.588 5.43514 25.383 3.59914 25.536C1.75814 25.69 0.78164 24.462 0.48814 22.627C0.48814 22.628 -1.20436 15.1275 2.98814 8.2405Z" fill="#354A54"/>
<path d="M5.23609 22.6C5.23609 22.6 3.54359 15.1 7.73559 8.21301C8.78459 6.49001 9.96609 5.49701 11.1491 4.97751C8.92809 4.20301 5.52909 4.00301 2.94109 8.25501C-1.24941 15.1445 0.441091 22.643 0.441091 22.643C0.735591 24.48 1.71359 25.706 3.55209 25.5505C4.14609 25.503 4.96459 24.966 5.80059 24.2665C5.52459 23.8065 5.33809 23.2415 5.23609 22.6ZM19.9236 6.67951H21.6166C22.1286 6.68151 22.8841 6.42651 23.2931 6.11701C23.2931 6.11701 24.1686 5.45351 25.4836 4.97451C21.9786 3.52301 18.4996 6.16051 18.4996 6.16051C18.4703 6.18251 18.4398 6.20384 18.4081 6.22451C18.8346 6.48301 19.4721 6.67901 19.9231 6.67901M27.3726 20.565C27.0461 20.1695 26.3566 19.846 25.8431 19.846L15.7001 19.845C15.5801 19.8472 15.4607 19.8624 15.3441 19.8905H21.0491C21.5616 19.8905 22.2526 20.2135 22.5796 20.609C22.5796 20.609 26.5651 25.4015 28.4011 25.555C29.6266 25.6575 30.4676 25.148 30.9811 24.2535C29.2221 22.787 27.3726 20.565 27.3726 20.565Z" fill="#405866"/>
<path d="M11.8791 11.7345C11.8674 11.5828 11.8625 11.4306 11.8646 11.2785C11.8638 11.2537 11.8699 11.2291 11.8821 11.2075C11.8266 11.0985 11.7564 10.9976 11.6736 10.9075C11.6562 10.8897 11.6435 10.8679 11.6366 10.844C11.6297 10.8201 11.6288 10.7948 11.6341 10.7705H9.53014V8.65399H7.25714V10.7705H5.43164V13.0785H7.25714V14.791H9.53014V13.0785H11.7551C11.7681 12.659 11.8701 12.2395 11.9206 11.8215C11.8966 11.7986 11.8818 11.7676 11.8791 11.7345Z" fill="#A2ABAF"/>
<path d="M9.54029 8.59699C9.54029 8.27049 9.27629 8.00549 8.95079 8.00549H7.85029C7.52479 8.00549 7.25879 8.27049 7.25879 8.59699C7.25879 8.92249 7.52429 9.18749 7.85029 9.18749H8.95079C9.02827 9.18743 9.10498 9.1721 9.17653 9.14239C9.24809 9.11268 9.3131 9.06917 9.36784 9.01433C9.42258 8.9595 9.46598 8.89442 9.49557 8.82281C9.52516 8.75121 9.54035 8.67447 9.54029 8.59699Z" fill="#A2ABAF"/>
<path d="M5.43164 13.045V10.7725H7.23964V9.14H9.54764V10.7725H11.6651V13.045H9.54764V14.793H7.23964V13.045H5.43164Z" fill="#A2ABAF"/>
<path d="M11.7228 13.05C12.0488 13.05 12.3133 12.7855 12.3133 12.459V11.3595C12.3071 11.2071 12.2421 11.063 12.132 10.9574C12.022 10.8518 11.8754 10.7928 11.7228 10.7928C11.5703 10.7928 11.4237 10.8518 11.3136 10.9574C11.2036 11.063 11.1386 11.2071 11.1323 11.3595V12.459C11.1322 12.5366 11.1474 12.6135 11.177 12.6852C11.2066 12.7569 11.2501 12.8221 11.305 12.877C11.3598 12.9319 11.425 12.9754 11.4967 13.0051C11.5684 13.0348 11.6452 13.0501 11.7228 13.05Z" fill="#A2ABAF"/>
<path d="M4.9072 12.115C4.9227 12.2675 4.9227 12.418 4.9227 12.5705C4.92344 12.5951 4.9172 12.6193 4.9047 12.6405C4.95837 12.7462 5.02737 12.8465 5.1117 12.9415C5.1512 12.9845 5.1637 13.034 5.1522 13.0775H7.2557V15.1945H9.5302V13.0775H11.3547V10.77H9.5302V9.05899H7.2557V10.77H5.0307C5.0192 11.19 4.9167 11.609 4.8667 12.0265C4.89035 12.0502 4.90472 12.0816 4.9072 12.115Z" fill="#A2ABAF"/>
<path d="M7.24658 15.2515C7.24658 15.578 7.51258 15.8435 7.84058 15.8435H8.93858C9.26458 15.8435 9.53008 15.578 9.53008 15.2515C9.53008 14.927 9.26458 14.6605 8.93858 14.6605H7.84058C7.51258 14.6605 7.24658 14.927 7.24658 15.2515Z" fill="#A2ABAF"/>
<path d="M11.3546 10.8045V13.077H9.54659V14.7105H7.23759V13.077H5.12109V10.8045H7.23759V9.05899H9.54659V10.8045H11.3546Z" fill="#A2ABAF"/>
<path d="M5.06412 10.7975C4.9866 10.7975 4.90984 10.8128 4.83822 10.8424C4.76661 10.8721 4.70154 10.9156 4.64675 10.9705C4.59196 11.0253 4.54851 11.0904 4.51889 11.1621C4.48927 11.2337 4.47406 11.3105 4.47412 11.388V12.487C4.47412 12.6436 4.53633 12.7938 4.64707 12.9045C4.75782 13.0153 4.90801 13.0775 5.06462 13.0775C5.22123 13.0775 5.37143 13.0153 5.48217 12.9045C5.59291 12.7938 5.65512 12.6436 5.65512 12.487V11.388C5.65519 11.3104 5.63994 11.2335 5.61026 11.1618C5.58057 11.0901 5.53704 11.025 5.48214 10.9701C5.42724 10.9153 5.36206 10.8718 5.29033 10.8422C5.2186 10.8125 5.14173 10.7974 5.06412 10.7975Z" fill="#A2ABAF"/>
<path d="M11.5999 11.53C11.5871 11.3785 11.5813 11.2265 11.5824 11.0745C11.5824 11.047 11.5904 11.024 11.5999 11.0045C11.5446 10.8956 11.4748 10.7947 11.3924 10.7045C11.3754 10.6866 11.3629 10.6648 11.3561 10.6411C11.3492 10.6173 11.3481 10.5923 11.3529 10.568H9.25139V8.45151H6.97839V10.568H5.15039V12.877H6.97839V14.587H9.25139V12.877H11.4744C11.4874 12.4555 11.5904 12.036 11.6399 11.6185C11.616 11.595 11.6018 11.5634 11.5999 11.53Z" fill="#CBD5DC"/>
<path d="M9.25656 8.3945C9.25656 8.069 8.99156 7.804 8.66606 7.804H7.56606C7.48858 7.80407 7.41188 7.81939 7.34032 7.8491C7.26876 7.87881 7.20376 7.92233 7.14902 7.97716C7.09428 8.03199 7.05087 8.09707 7.02128 8.16868C6.99169 8.24029 6.9765 8.31702 6.97656 8.3945C6.97643 8.47202 6.99158 8.54881 7.02114 8.62048C7.0507 8.69214 7.09409 8.75728 7.14884 8.81216C7.20359 8.86705 7.26861 8.91061 7.3402 8.94035C7.41179 8.97009 7.48854 8.98544 7.56606 8.9855H8.66606C8.99156 8.9855 9.25656 8.721 9.25656 8.3945Z" fill="#CBD5DC"/>
<path d="M5.14844 12.843V10.5695H6.95794V8.938H9.26544V10.5695H11.3829V12.843H9.26544V14.5885H6.95794V12.843H5.14844Z" fill="#CBD5DC"/>
<path d="M11.4391 12.8505C11.7681 12.8505 12.0316 12.585 12.0316 12.2585V11.1595C12.0317 11.0818 12.0164 11.0048 11.9866 10.933C11.9569 10.8612 11.9132 10.796 11.8581 10.7411C11.8031 10.6862 11.7377 10.6428 11.6658 10.6132C11.5939 10.5837 11.5169 10.5687 11.4391 10.569C11.1146 10.569 10.8486 10.8325 10.8486 11.1595V12.2585C10.8486 12.585 11.1146 12.8505 11.4391 12.8505Z" fill="#CBD5DC"/>
<path d="M4.62594 11.913C4.63894 12.0645 4.63994 12.2175 4.63994 12.368C4.63943 12.3927 4.63435 12.4171 4.62494 12.44C4.67694 12.5453 4.7451 12.6452 4.82944 12.7395C4.86944 12.7825 4.88094 12.832 4.86994 12.8765H6.97344V14.992H9.24644V12.8765H11.0719V10.5685H9.24644V8.85651H6.97344V10.5685H4.75094C4.73844 10.9885 4.63344 11.408 4.58594 11.825C4.60862 11.8491 4.62268 11.8801 4.62594 11.913Z" fill="#CBD5DC"/>
<path d="M6.9668 15.05C6.96641 15.1278 6.98139 15.2049 7.0109 15.2768C7.0404 15.3488 7.08384 15.4142 7.13872 15.4693C7.1936 15.5244 7.25884 15.5681 7.33067 15.5979C7.40251 15.6278 7.47953 15.6431 7.5573 15.643H8.6563C8.81001 15.6385 8.95591 15.5743 9.06305 15.464C9.17019 15.3537 9.23012 15.206 9.23012 15.0523C9.23012 14.8985 9.17019 14.7508 9.06305 14.6405C8.95591 14.5302 8.81001 14.466 8.6563 14.4615H7.5573C7.2303 14.4615 6.9668 14.725 6.9668 15.05Z" fill="#CBD5DC"/>
<path d="M11.0699 10.6V12.8735H9.26337V14.505H6.95437V12.8735H4.83887V10.6H6.95437V8.8535H9.26337V10.6H11.0699Z" fill="#CBD5DC"/>
<path d="M4.78194 10.595C4.45644 10.595 4.18994 10.8595 4.18994 11.1875V12.2855C4.19442 12.4393 4.25867 12.5854 4.36906 12.6926C4.47945 12.7998 4.62729 12.8598 4.78119 12.8598C4.93509 12.8598 5.08293 12.7998 5.19332 12.6926C5.30371 12.5854 5.36797 12.4393 5.37244 12.2855V11.1875C5.37244 10.86 5.10844 10.595 4.78194 10.595Z" fill="#CBD5DC"/>
<path d="M27.2898 9.045C27.2898 9.40815 27.1455 9.75642 26.8887 10.0132C26.6319 10.27 26.2837 10.4143 25.9205 10.4143C25.5574 10.4143 25.2091 10.27 24.9523 10.0132C24.6955 9.75642 24.5513 9.40815 24.5513 9.045C24.5513 8.68166 24.6956 8.33319 24.9525 8.07627C25.2095 7.81934 25.5579 7.675 25.9213 7.675C26.1011 7.675 26.2792 7.71045 26.4453 7.77932C26.6115 7.84818 26.7624 7.94912 26.8895 8.07636C27.0166 8.20359 27.1173 8.35463 27.186 8.52084C27.2547 8.68705 27.29 8.86516 27.2898 9.045Z" fill="#FAAA33"/>
<path d="M22.1898 11.4755C22.9467 11.4755 23.5603 10.8619 23.5603 10.105C23.5603 9.34809 22.9467 8.7345 22.1898 8.7345C21.4329 8.7345 20.8193 9.34809 20.8193 10.105C20.8193 10.8619 21.4329 11.4755 22.1898 11.4755Z" fill="#FAAA33"/>
<path d="M28.66 12.659C28.6594 13.0226 28.5146 13.3712 28.2572 13.628C27.9999 13.8849 27.6511 14.0291 27.2875 14.029C26.9287 14.0222 26.587 13.8748 26.3357 13.6187C26.0844 13.3626 25.9436 13.0181 25.9436 12.6593C25.9436 12.3004 26.0844 11.9559 26.3357 11.6998C26.587 11.4437 26.9287 11.2964 27.2875 11.2895C27.4675 11.2892 27.6459 11.3244 27.8124 11.393C27.9789 11.4617 28.1302 11.5625 28.2576 11.6897C28.3851 11.8169 28.4863 11.968 28.5553 12.1343C28.6243 12.3006 28.6599 12.4789 28.66 12.659ZM24.928 13.717C24.9183 14.0738 24.7698 14.4128 24.514 14.6617C24.2582 14.9107 23.9154 15.05 23.5585 15.05C23.2015 15.05 22.8587 14.9107 22.6029 14.6617C22.3471 14.4128 22.1986 14.0738 22.189 13.717C22.1886 13.5369 22.2238 13.3586 22.2925 13.1921C22.3612 13.0256 22.462 12.8743 22.5892 12.7468C22.7164 12.6194 22.8674 12.5182 23.0338 12.4492C23.2001 12.3801 23.3784 12.3446 23.5585 12.3445C23.7385 12.3446 23.9168 12.3801 24.0832 12.4492C24.2495 12.5182 24.4006 12.6194 24.5278 12.7468C24.655 12.8743 24.7558 13.0256 24.8245 13.1921C24.8931 13.3586 24.9283 13.5369 24.928 13.717Z" fill="#FAAA33"/>
</g>
<defs>
<clipPath id="clip0_326_295">
<rect width="32" height="32" fill="white"/>
</clipPath>
</defs>
</svg>
