<svg width="16" height="16" viewBox="0 0 16 16" fill="none" xmlns="http://www.w3.org/2000/svg">
<path d="M11.0005 2.5C12.7781 2.50017 14.1665 3.88384 14.1665 5.66699C14.1664 6.75916 13.6787 7.79256 12.7173 8.96875C11.7503 10.1518 10.3578 11.4178 8.63135 12.9834H8.63037L7.99951 13.5566L7.36963 12.9834L6.13818 11.8613C4.97291 10.7895 4.00789 9.85595 3.28271 8.96875C2.32138 7.7926 1.83359 6.75913 1.8335 5.66699C1.8335 3.88373 3.2227 2.5 5.00049 2.5C6.00909 2.5001 6.98548 2.97208 7.62061 3.71191L8.00049 4.1543L8.37939 3.71191C9.01458 2.97191 9.9917 2.5 11.0005 2.5Z" fill="#F8F9FA" stroke="#343A40"/>
</svg>
