<svg width="24" height="24" viewBox="0 0 24 24" fill="none" xmlns="http://www.w3.org/2000/svg">
<path fill-rule="evenodd" clip-rule="evenodd" d="M3.26847 7.15584L10.2049 2.29884C10.5773 2.03817 11.038 1.93607 11.4856 2.015C11.9333 2.09392 12.3313 2.3474 12.592 2.7197L13.6862 4.28184C13.7022 4.3047 13.7175 4.32799 13.732 4.3517L3.26847 7.15584ZM0.919903 12.7886L0.445474 11.0177C0.327951 10.5785 0.389709 10.1106 0.617163 9.71694C0.844617 9.32328 1.21914 9.03609 1.65833 8.91856L19.0446 4.25999C19.4838 4.1423 19.9517 4.20388 20.3454 4.43117C20.7391 4.65846 21.0265 5.03285 21.1442 5.47199L21.6375 7.31399C21.7072 7.57403 21.6988 7.84884 21.6133 8.10414C21.5279 8.35945 21.3692 8.58397 21.157 8.7497C20.8236 9.00974 20.5746 9.3626 20.4412 9.76386C20.3079 10.1651 20.2962 10.5969 20.4077 11.0047C20.5191 11.4126 20.7488 11.7784 21.0676 12.0561C21.3865 12.3338 21.7804 12.5109 22.1998 12.5653C22.4587 12.5991 22.7019 12.7089 22.8984 12.881C23.0949 13.053 23.236 13.2795 23.3038 13.5317L23.806 15.4076C23.9237 15.8467 23.8622 16.3146 23.6349 16.7083C23.4076 17.1021 23.0332 17.3894 22.594 17.5071L5.2069 22.1657C4.76782 22.2833 4.30003 22.2216 3.90638 21.9943C3.51274 21.767 3.22548 21.3927 3.10776 20.9537L2.63505 19.1888C2.56033 18.9111 2.56751 18.6177 2.65571 18.344C2.74392 18.0702 2.90939 17.8278 3.13219 17.646C3.45234 17.3847 3.69011 17.0363 3.81686 16.643C3.94361 16.2497 3.95394 15.828 3.84661 15.429C3.73928 15.0299 3.51885 14.6703 3.21189 14.3936C2.90493 14.1169 2.52452 13.9349 2.11647 13.8694C1.8342 13.8239 1.5711 13.6977 1.35888 13.5061C1.14666 13.3145 0.994362 13.0656 0.920331 12.7894M16.1252 9.9227C16.2902 9.88078 16.4453 9.80651 16.5813 9.70419C16.7174 9.60187 16.8318 9.47354 16.9179 9.32665C17.004 9.17976 17.0601 9.01723 17.0828 8.8485C17.1056 8.67977 17.0946 8.5082 17.0505 8.34375C17.0065 8.17929 16.9302 8.02523 16.8261 7.89049C16.722 7.75576 16.5922 7.64305 16.4442 7.55889C16.2962 7.47473 16.1329 7.42081 15.9639 7.40025C15.7949 7.37969 15.6235 7.39291 15.4596 7.43913C15.1342 7.53091 14.8581 7.74715 14.691 8.04104C14.5239 8.33493 14.4793 8.68282 14.5668 9.00937C14.6543 9.33593 14.8669 9.61487 15.1586 9.78581C15.4502 9.95675 15.7975 10.0059 16.1252 9.9227ZM17.0123 13.2347C17.1754 13.191 17.3283 13.1157 17.4623 13.0129C17.5963 12.9101 17.7087 12.782 17.7932 12.6358C17.8776 12.4896 17.9324 12.3281 17.9545 12.1607C17.9766 11.9933 17.9654 11.8232 17.9218 11.6601C17.8781 11.497 17.8027 11.3441 17.7 11.2102C17.5972 11.0762 17.469 10.9638 17.3228 10.8793C17.1766 10.7949 17.0152 10.74 16.8478 10.718C16.6804 10.6959 16.5103 10.707 16.3472 10.7507C16.0178 10.839 15.7369 11.0545 15.5664 11.3498C15.3959 11.6451 15.3497 11.9961 15.438 12.3255C15.5262 12.6549 15.7417 12.9357 16.0371 13.1062C16.3324 13.2768 16.6829 13.323 17.0123 13.2347ZM17.9003 16.5463C18.0658 16.5048 18.2213 16.4308 18.3579 16.3286C18.4945 16.2264 18.6094 16.0981 18.6959 15.9511C18.7824 15.804 18.8387 15.6413 18.8617 15.4722C18.8847 15.3032 18.8738 15.1313 18.8296 14.9665C18.7855 14.8018 18.709 14.6474 18.6047 14.5125C18.5003 14.3776 18.3701 14.2648 18.2217 14.1806C18.0733 14.0965 17.9097 14.0428 17.7403 14.0225C17.5709 14.0023 17.3992 14.0159 17.2352 14.0627C16.9107 14.1552 16.6356 14.3716 16.4692 14.6651C16.3028 14.9586 16.2585 15.3058 16.3457 15.6318C16.433 15.9577 16.645 16.2362 16.9358 16.4073C17.2266 16.5784 17.573 16.6283 17.9003 16.5463Z" fill="#05063F"/>
</svg>
