<svg width="60" height="60" viewBox="0 0 60 60" fill="none" xmlns="http://www.w3.org/2000/svg">
<path fill-rule="evenodd" clip-rule="evenodd" d="M10.1784 0.242102C9.92219 0.404402 9.78566 1.8336 9.72732 4.9626L9.64372 9.45L4.90728 9.5325L0.170843 9.6153L0.153103 11.7825C0.143479 12.9747 0.0920559 14.49 0.0391281 15.15C-0.10492 16.9413 0.136563 16.9866 0.967169 15.3237C2.31442 12.6264 5.05945 10.8414 8.05228 10.7166L9.64372 10.65L9.7201 12.15C10.0467 18.5718 12.199 22.2894 16.8714 24.5028C19.0862 25.5522 19.1485 25.5627 24.8782 25.8408C28.0542 25.9947 31.068 26.0739 31.5757 26.0163L32.4989 25.9119L32.5849 23.0058L32.6709 20.1L26.2697 20.0892C22.7491 20.0835 18.5437 19.9605 16.9249 19.8162C14.4141 19.5924 13.8235 19.4337 12.9075 18.7368C11.3145 17.5248 10.7107 15.9363 10.7029 12.9384L10.6963 10.4265L13.3739 10.5543C15.6282 10.6617 16.2386 10.8057 17.2362 11.4642C18.7362 12.4545 19.4681 13.9899 19.6501 16.5273L19.7935 18.5259L22.0866 18.6813C23.3475 18.7665 24.5035 18.72 24.6554 18.5778C25.0848 18.1755 24.351 16.2198 23.1731 14.6268C20.9603 11.6346 17.5841 9.9372 13.3276 9.6774L10.6963 9.5169V8.5629C10.6963 5.7384 12.515 2.5881 14.9052 1.2732C15.7283 0.820496 16.4034 0.3489 16.4059 0.225C16.4116 -0.0732 10.6509 -0.057298 10.1784 0.242102ZM43.4754 0.144901C43.4754 0.224701 44.1436 0.627598 44.9604 1.0407C47.3145 2.2305 49.0596 4.9923 49.2364 7.8084L49.3396 9.45L47.9863 9.5268C45.1859 9.6858 42.6713 10.2726 41.0149 11.1534C37.6855 12.9234 35.2827 16.0611 34.5078 19.65C34.3294 20.475 34.143 23.7825 34.0931 27L34.0025 32.85L36.8537 33.0498C38.422 33.1599 39.8059 33.1875 39.9292 33.1116C40.0525 33.0354 40.0874 30.3129 40.0071 27.0615C39.8285 19.851 40.1509 14.9916 40.9132 13.3983C41.2175 12.762 42.004 11.8902 42.6695 11.451C43.75 10.7376 44.1563 10.6551 46.6069 10.6527L49.3396 10.65L49.2963 13.2282C49.2476 16.1556 48.8226 17.262 47.304 18.4176C46.2421 19.2252 44.3006 19.7808 42.498 19.7928L41.3703 19.8V22.4868V25.1733L42.6484 24.7251C46.9753 23.2071 49.5874 19.3527 50.1945 13.5897L50.5265 10.4406L52.0383 10.6368C55.2161 11.0499 58.0107 12.9771 59.235 15.6L59.865 16.95L59.951 13.6692C59.9982 11.865 59.9699 10.2147 59.8881 10.002C59.7775 9.714 58.5267 9.5943 54.9908 9.5328C51.0227 9.4635 50.2372 9.3759 50.2126 9C50.1963 8.7525 50.1623 6.6261 50.1371 4.275L50.0914 0H46.7834C44.964 0 43.4754 0.0651005 43.4754 0.144901ZM25.9608 4.9578C26.6423 5.5395 27.5799 6.7881 28.0449 7.7328C28.8273 9.3222 28.9013 9.7845 29.0406 13.95L29.1909 18.45L29.9905 18.5424L30.7902 18.6345L30.8978 14.0424C31.0214 8.7702 31.3204 7.8711 33.7968 5.325L35.1829 3.9H29.9523H24.7221L25.9608 4.9578ZM3.77956 30.2178V35.4966L4.60655 34.4289C5.65037 33.0813 7.78132 31.6392 9.34299 31.2234C10.0046 31.0473 12.3478 30.9027 14.5504 30.9018L18.5551 30.9L18.4598 30.075L18.3648 29.25L14.305 29.2419C9.11714 29.2314 7.62825 28.7784 5.368 26.5236L3.77956 24.939V30.2178ZM55.2188 26.0802C54.5109 26.9727 53.5657 27.675 52.2413 28.2933C50.4098 29.1483 50.0538 29.2053 45.9107 29.3052C41.5505 29.4105 41.5201 29.4162 41.4287 30.1239L41.3366 30.8364L46.0899 30.9468C51.6227 31.0749 52.8262 31.4676 54.9033 33.8214C55.5688 34.5756 56.1826 35.1234 56.2674 35.0388C56.3522 34.9542 56.3844 32.61 56.339 29.829L56.2563 24.7728L55.2188 26.0802ZM19.9249 27.2085C19.8272 27.3666 19.7647 31.4004 19.786 36.1728C19.8224 44.2998 19.786 44.9355 19.2137 46.2C18.1194 48.6168 16.4843 49.4649 12.8765 49.4868L10.6963 49.5L10.6981 47.475C10.7002 44.8575 11.1137 43.4298 12.2411 42.1491C13.2702 40.9797 14.6258 40.5042 16.9363 40.5018L18.5151 40.5V37.7799C18.5151 34.7469 18.5485 34.7745 16.2597 35.9325C12.4931 37.8381 10.2954 41.5005 9.87378 46.5738L9.64341 49.35L8.13978 49.2714C5.2889 49.1223 2.33366 47.1372 0.912132 44.4153C0.519684 43.6644 0.180468 43.185 0.158214 43.35C0.0980692 43.7958 0.211442 49.9401 0.28121 50.01C0.31429 50.043 2.46809 50.1645 5.06756 50.2803L9.79408 50.4906V55.2453V60L13.3276 59.9859L16.8611 59.9721L15.4655 59.247C12.8717 57.8991 10.6963 54.4266 10.6963 51.6339V50.4906L13.6283 50.3007C16.1589 50.1372 16.8551 49.9662 18.713 49.0527C20.1905 48.3264 21.3495 47.4663 22.408 46.3107C25.1173 43.3536 25.6406 41.3691 25.7792 33.5217C25.8363 30.2925 25.7873 27.555 25.6706 27.4383C25.3281 27.0963 20.1234 26.8884 19.9249 27.2085ZM30.3186 34.4355L27.2362 34.521L27.1824 36.6105C27.1529 37.7598 27.1192 39.0036 27.1072 39.375L27.0858 40.05L35.9573 40.2144C44.1241 40.3656 44.9396 40.4289 46.2267 41.0091C48.3691 41.9751 49.3197 43.7907 49.3308 46.9398L49.3396 49.35L47.9863 49.4481C45.1435 49.6539 43.5061 49.2405 42.1212 47.967C40.7229 46.6812 40.1674 45.2031 40.1674 42.7671V41.4H37.5788H34.9898L35.1925 42.225C35.6036 43.8996 37.1057 46.0803 38.7844 47.4396C41.152 49.3566 43.2838 50.1297 46.7446 50.3259L49.5627 50.4855L49.3672 52.1442C48.9919 55.3302 47.4624 57.6726 44.8648 59.0397L43.325 59.85L46.4622 59.9361C48.1878 59.9835 49.7744 59.9553 49.9882 59.8734C50.2781 59.7624 50.3978 58.5216 50.4595 54.9891L50.5425 50.2536L55.2037 50.2518L59.865 50.25L59.9326 46.65L60 43.05L59.373 44.25C58.0979 46.6905 55.9982 48.3633 53.3167 49.0755C50.4562 49.8354 50.5377 49.9011 50.1978 46.5546C49.609 40.7556 46.8005 36.9159 41.8692 35.1675C40.4441 34.6623 34.8722 34.3092 30.3186 34.4355ZM29.1819 41.8122C29.1205 41.9979 29.0258 44.04 28.972 46.35C28.8815 50.2266 28.8096 50.6823 28.037 52.2672C27.5766 53.2113 26.6501 54.4536 25.978 55.0278L24.7558 56.0715L29.8303 56.1606C32.6213 56.2098 34.9465 56.2308 34.9979 56.2071C35.0491 56.1837 34.4257 55.5006 33.6125 54.6894C31.3718 52.4541 30.8449 50.7567 30.8449 45.7737V41.7699L30.0693 41.622C29.6354 41.5392 29.2444 41.6229 29.1819 41.8122Z" fill="#05063F"/>
</svg>
