<svg width="32" height="32" viewBox="0 0 32 32" fill="none" xmlns="http://www.w3.org/2000/svg">
<path d="M2 16C2 16.5304 2.21071 17.0391 2.58579 17.4142C2.96086 17.7893 3.46957 18 4 18C4.53043 18 5.03914 17.7893 5.41421 17.4142C5.78929 17.0391 6 16.5304 6 16C6 15.4696 5.78929 14.9609 5.41421 14.5858C5.03914 14.2107 4.53043 14 4 14C3.46957 14 2.96086 14.2107 2.58579 14.5858C2.21071 14.9609 2 15.4696 2 16ZM5.33333 6C5.33333 6.26264 5.38506 6.52272 5.48557 6.76537C5.58608 7.00802 5.7334 7.2285 5.91912 7.41421C6.10484 7.59993 6.32532 7.74725 6.56797 7.84776C6.81062 7.94827 7.07069 8 7.33333 8C7.59598 8 7.85605 7.94827 8.0987 7.84776C8.34135 7.74725 8.56183 7.59993 8.74755 7.41421C8.93326 7.2285 9.08058 7.00802 9.18109 6.76537C9.2816 6.52272 9.33333 6.26264 9.33333 6C9.33333 5.73736 9.2816 5.47728 9.18109 5.23463C9.08058 4.99198 8.93326 4.7715 8.74755 4.58579C8.56183 4.40007 8.34135 4.25275 8.0987 4.15224C7.85605 4.05173 7.59598 4 7.33333 4C7.07069 4 6.81062 4.05173 6.56797 4.15224C6.32532 4.25275 6.10484 4.40007 5.91912 4.58579C5.7334 4.7715 5.58608 4.99198 5.48557 5.23463C5.38506 5.47728 5.33333 5.73736 5.33333 6ZM4.66667 26.6667C4.66667 27.1971 4.87738 27.7058 5.25245 28.0809C5.62753 28.4559 6.13623 28.6667 6.66667 28.6667C7.1971 28.6667 7.70581 28.4559 8.08088 28.0809C8.45595 27.7058 8.66667 27.1971 8.66667 26.6667C8.66667 26.1362 8.45595 25.6275 8.08088 25.2525C7.70581 24.8774 7.1971 24.6667 6.66667 24.6667C6.13623 24.6667 5.62753 24.8774 5.25245 25.2525C4.87738 25.6275 4.66667 26.1362 4.66667 26.6667Z" fill="white"/>
<path d="M27.3165 13.702C26.9885 7.552 21.8978 2.66667 15.6665 2.66667V30.6667H21.3332V26.2247L24.4452 26.7493C24.7179 26.7953 24.9972 26.7842 25.2654 26.7167C25.5337 26.6493 25.785 26.5269 26.0035 26.3574C26.2221 26.1878 26.403 25.9748 26.5351 25.7318C26.6671 25.4887 26.7472 25.2209 26.7705 24.9453L27.1532 20.404C28.3865 20.1273 29.2732 19.6813 29.8485 19.3093C30.3645 18.976 30.4245 18.3027 30.0805 17.7933L27.3165 13.702Z" fill="#8FBFFA"/>
<path d="M21.3332 29.6667V26.2247L24.4452 26.7493C24.7179 26.7953 24.9972 26.7842 25.2654 26.7167C25.5337 26.6493 25.785 26.5269 26.0035 26.3574C26.2221 26.1878 26.403 25.9748 26.5351 25.7318C26.6671 25.4887 26.7472 25.2209 26.7705 24.9453L27.1532 20.404C28.3865 20.1273 29.2732 19.6813 29.8485 19.3093C30.3645 18.976 30.4245 18.3027 30.0805 17.7933L27.3165 13.702C26.9885 7.552 21.8978 2.66667 15.6665 2.66667V29.6667" stroke="#2859C5" stroke-width="1.5" stroke-linecap="round" stroke-linejoin="round"/>
<path d="M2 16C2 16.5304 2.21071 17.0391 2.58579 17.4142C2.96086 17.7893 3.46957 18 4 18C4.53043 18 5.03914 17.7893 5.41421 17.4142C5.78929 17.0391 6 16.5304 6 16C6 15.4696 5.78929 14.9609 5.41421 14.5858C5.03914 14.2107 4.53043 14 4 14C3.46957 14 2.96086 14.2107 2.58579 14.5858C2.21071 14.9609 2 15.4696 2 16ZM5.33333 6C5.33333 6.26264 5.38506 6.52272 5.48557 6.76537C5.58608 7.00802 5.7334 7.2285 5.91912 7.41421C6.10484 7.59993 6.32532 7.74725 6.56797 7.84776C6.81062 7.94827 7.07069 8 7.33333 8C7.59598 8 7.85605 7.94827 8.0987 7.84776C8.34135 7.74725 8.56183 7.59993 8.74755 7.41421C8.93326 7.2285 9.08058 7.00802 9.18109 6.76537C9.2816 6.52272 9.33333 6.26264 9.33333 6C9.33333 5.73736 9.2816 5.47728 9.18109 5.23463C9.08058 4.99198 8.93326 4.7715 8.74755 4.58579C8.56183 4.40007 8.34135 4.25275 8.0987 4.15224C7.85605 4.05173 7.59598 4 7.33333 4C7.07069 4 6.81062 4.05173 6.56797 4.15224C6.32532 4.25275 6.10484 4.40007 5.91912 4.58579C5.7334 4.7715 5.58608 4.99198 5.48557 5.23463C5.38506 5.47728 5.33333 5.73736 5.33333 6ZM4.66667 26.6667C4.66667 27.1971 4.87738 27.7058 5.25245 28.0809C5.62753 28.456 6.13623 28.6667 6.66667 28.6667C7.1971 28.6667 7.70581 28.456 8.08088 28.0809C8.45595 27.7058 8.66667 27.1971 8.66667 26.6667C8.66667 26.1362 8.45595 25.6275 8.08088 25.2525C7.70581 24.8774 7.1971 24.6667 6.66667 24.6667C6.13623 24.6667 5.62753 24.8774 5.25245 25.2525C4.87738 25.6275 4.66667 26.1362 4.66667 26.6667Z" stroke="#2859C5" stroke-width="1.5"/>
<path d="M6 16H15.6667M15.6667 10.6667H12L9 7.66667M15.6667 22H11.3333L8.33333 25" stroke="#2859C5" stroke-width="1.5" stroke-linecap="round" stroke-linejoin="round"/>
</svg>
