<svg width="64" height="64" viewBox="0 0 64 64" fill="none" xmlns="http://www.w3.org/2000/svg">
<g filter="url(#filter0_d_681_561)">
<g clip-path="url(#clip0_681_561)">
<rect x="4" width="56" height="56" rx="28" fill="white"/>
<rect x="4" width="56" height="56" rx="16" fill="black"/>
<g clip-path="url(#clip1_681_561)">
<mask id="mask0_681_561" style="mask-type:luminance" maskUnits="userSpaceOnUse" x="16" y="12" width="32" height="32">
<path d="M16 12H48V44H16V12Z" fill="white"/>
</mask>
<g mask="url(#mask0_681_561)">
<path d="M41.2 13.4995H46.1074L35.3874 25.7829L48 42.5006H38.1257L30.3863 32.3635L21.5406 42.5006H16.6286L28.0937 29.3577L16 13.5017H26.1257L33.1109 22.7657L41.2 13.4995ZM39.4743 39.5566H42.1943L24.64 16.2903H21.7234L39.4743 39.5566Z" fill="#F8F9FA"/>
</g>
</g>
</g>
</g>
<defs>
<filter id="filter0_d_681_561" x="0" y="0" width="64" height="64" filterUnits="userSpaceOnUse" color-interpolation-filters="sRGB">
<feFlood flood-opacity="0" result="BackgroundImageFix"/>
<feColorMatrix in="SourceAlpha" type="matrix" values="0 0 0 0 0 0 0 0 0 0 0 0 0 0 0 0 0 0 127 0" result="hardAlpha"/>
<feOffset dy="4"/>
<feGaussianBlur stdDeviation="2"/>
<feComposite in2="hardAlpha" operator="out"/>
<feColorMatrix type="matrix" values="0 0 0 0 0 0 0 0 0 0 0 0 0 0 0 0 0 0 0.25 0"/>
<feBlend mode="normal" in2="BackgroundImageFix" result="effect1_dropShadow_681_561"/>
<feBlend mode="normal" in="SourceGraphic" in2="effect1_dropShadow_681_561" result="shape"/>
</filter>
<clipPath id="clip0_681_561">
<rect x="4" width="56" height="56" rx="28" fill="white"/>
</clipPath>
<clipPath id="clip1_681_561">
<rect width="32" height="32" fill="white" transform="translate(16 12)"/>
</clipPath>
</defs>
</svg>
