<?xml version="1.0" standalone="no"?>
<!DOCTYPE svg PUBLIC "-//W3C//DTD SVG 20010904//EN"
 "http://www.w3.org/TR/2001/REC-SVG-20010904/DTD/svg10.dtd">
<svg version="1.0" xmlns="http://www.w3.org/2000/svg"
 width="640.000000pt" height="480.000000pt" viewBox="0 0 640.000000 480.000000"
 preserveAspectRatio="xMidYMid meet">

<g transform="translate(0.000000,480.000000) scale(0.100000,-0.100000)"
fill="#000000" stroke="none">
<path d="M801 4561 c8 -11 33 -44 55 -73 35 -45 170 -222 614 -803 46 -60 158
-207 249 -325 90 -118 207 -271 260 -340 52 -69 176 -230 274 -359 99 -128
219 -286 268 -350 l88 -116 -23 -25 c-12 -14 -74 -83 -136 -155 -62 -71 -125
-143 -139 -160 -15 -16 -87 -100 -162 -185 -74 -85 -388 -444 -697 -797 -309
-354 -562 -645 -562 -648 0 -3 166 -5 368 -5 l368 0 645 736 c354 405 653 747
664 761 l21 25 122 -158 c114 -149 694 -908 931 -1218 58 -76 110 -140 116
-142 5 -2 342 -3 748 -2 l738 3 -168 222 c-92 122 -256 337 -363 479 -299 396
-486 643 -710 939 -113 149 -306 405 -430 570 l-226 299 254 291 c140 159 266
304 281 320 15 17 137 156 271 310 134 154 369 423 522 597 153 174 278 320
278 323 0 3 -166 5 -368 5 l-368 0 -470 -537 c-258 -296 -529 -606 -603 -690
-73 -84 -137 -153 -142 -153 -8 0 -153 190 -967 1268 l-84 112 -765 0 c-755 0
-765 0 -752 -19z m1326 -450 c21 -27 116 -152 211 -277 94 -126 380 -503 633
-839 254 -335 599 -792 768 -1015 168 -223 331 -439 363 -480 155 -202 628
-830 628 -835 0 -3 -90 -5 -199 -5 l-199 0 -228 298 c-125 163 -278 362 -339
442 -61 80 -155 204 -210 275 -54 72 -239 312 -409 535 -171 223 -355 464
-411 536 -55 73 -119 156 -141 185 -23 30 -212 277 -420 549 -208 272 -405
531 -439 575 -34 44 -65 86 -69 93 -6 9 38 12 208 12 l214 0 39 -49z"/>
</g>
</svg>
